{
    "asset" : {
        "generator" : "Khronos glTF Blender I/O v1.8.19",
        "version" : "2.0"
    },
    "scene" : 0,
    "scenes" : [
        {
            "name" : "Scene",
            "nodes" : [
                0
            ]
        }
    ],
    "nodes" : [
        {
            "mesh" : 0,
            "name" : "\u5de5\u4e1a\u8bbe\u590704"
        }
    ],
    "materials" : [
        {
            "doubleSided" : true,
            "name" : "Mat3d66-818680-3-5584.001",
            "pbrMetallicRoughness" : {
                "baseColorFactor" : [
                    0.7529410123825073,
                    0.7529410123825073,
                    0.7529410123825073,
                    1
                ],
                "metallicFactor" : 0,
                "roughnessFactor" : 0.7362204790115356
            }
        },
        {
            "doubleSided" : true,
            "name" : "Mat3d66-818680-1-3703.003",
            "pbrMetallicRoughness" : {
                "baseColorFactor" : [
                    0.49803900718688965,
                    0.49803900718688965,
                    0.49803900718688965,
                    1
                ],
                "metallicFactor" : 0,
                "roughnessFactor" : 0.7755905389785767
            }
        },
        {
            "doubleSided" : true,
            "name" : "Mat3d66-818680-7-8075.001",
            "pbrMetallicRoughness" : {
                "baseColorFactor" : [
                    0.2784309983253479,
                    0.47058799862861633,
                    0.6901959776878357,
                    1
                ],
                "roughnessFactor" : 0.6968504190444946
            }
        },
        {
            "doubleSided" : true,
            "name" : "Mat3d66-818680-2-4832.001",
            "pbrMetallicRoughness" : {
                "baseColorFactor" : [
                    0.1490200012922287,
                    0.2627449929714203,
                    0.556863009929657,
                    1
                ],
                "metallicFactor" : 0,
                "roughnessFactor" : 0.712598443031311
            }
        }
    ],
    "meshes" : [
        {
            "name" : "Obj3d66-818680-9274-740",
            "primitives" : [
                {
                    "attributes" : {
                        "POSITION" : 0,
                        "NORMAL" : 1,
                        "TEXCOORD_0" : 2
                    },
                    "indices" : 3,
                    "material" : 0
                },
                {
                    "attributes" : {
                        "POSITION" : 4,
                        "NORMAL" : 5,
                        "TEXCOORD_0" : 6
                    },
                    "indices" : 7,
                    "material" : 1
                },
                {
                    "attributes" : {
                        "POSITION" : 8,
                        "NORMAL" : 9,
                        "TEXCOORD_0" : 10
                    },
                    "indices" : 11,
                    "material" : 2
                },
                {
                    "attributes" : {
                        "POSITION" : 12,
                        "NORMAL" : 13,
                        "TEXCOORD_0" : 14
                    },
                    "indices" : 15,
                    "material" : 3
                }
            ]
        }
    ],
    "accessors" : [
        {
            "bufferView" : 0,
            "componentType" : 5126,
            "count" : 5343,
            "max" : [
                8.165464401245117,
                12.28076457977295,
                2.8577699661254883
            ],
            "min" : [
                -8.165465354919434,
                0.00063269556267187,
                -2.8577699661254883
            ],
            "type" : "VEC3"
        },
        {
            "bufferView" : 1,
            "componentType" : 5126,
            "count" : 5343,
            "type" : "VEC3"
        },
        {
            "bufferView" : 2,
            "componentType" : 5126,
            "count" : 5343,
            "type" : "VEC2"
        },
        {
            "bufferView" : 3,
            "componentType" : 5123,
            "count" : 7536,
            "type" : "SCALAR"
        },
        {
            "bufferView" : 4,
            "componentType" : 5126,
            "count" : 30651,
            "max" : [
                6.621114730834961,
                14.245638847351074,
                2.715256452560425
            ],
            "min" : [
                -6.013509273529053,
                4.2376507281005615e-07,
                -2.651268720626831
            ],
            "type" : "VEC3"
        },
        {
            "bufferView" : 5,
            "componentType" : 5126,
            "count" : 30651,
            "type" : "VEC3"
        },
        {
            "bufferView" : 6,
            "componentType" : 5126,
            "count" : 30651,
            "type" : "VEC2"
        },
        {
            "bufferView" : 7,
            "componentType" : 5123,
            "count" : 36012,
            "type" : "SCALAR"
        },
        {
            "bufferView" : 8,
            "componentType" : 5126,
            "count" : 24,
            "max" : [
                6.013497352600098,
                3.0234339237213135,
                2.223205804824829
            ],
            "min" : [
                -6.013509273529053,
                2.4566593170166016,
                -2.616452932357788
            ],
            "type" : "VEC3"
        },
        {
            "bufferView" : 9,
            "componentType" : 5126,
            "count" : 24,
            "type" : "VEC3"
        },
        {
            "bufferView" : 10,
            "componentType" : 5126,
            "count" : 24,
            "type" : "VEC2"
        },
        {
            "bufferView" : 11,
            "componentType" : 5123,
            "count" : 36,
            "type" : "SCALAR"
        },
        {
            "bufferView" : 12,
            "componentType" : 5126,
            "count" : 1923,
            "max" : [
                8.16545295715332,
                15.629059791564941,
                2.2424588203430176
            ],
            "min" : [
                -8.165465354919434,
                0.07620282471179962,
                -2.6327931880950928
            ],
            "type" : "VEC3"
        },
        {
            "bufferView" : 13,
            "componentType" : 5126,
            "count" : 1923,
            "type" : "VEC3"
        },
        {
            "bufferView" : 14,
            "componentType" : 5126,
            "count" : 1923,
            "type" : "VEC2"
        },
        {
            "bufferView" : 15,
            "componentType" : 5123,
            "count" : 4428,
            "type" : "SCALAR"
        }
    ],
    "bufferViews" : [
        {
            "buffer" : 0,
            "byteLength" : 64116,
            "byteOffset" : 0
        },
        {
            "buffer" : 0,
            "byteLength" : 64116,
            "byteOffset" : 64116
        },
        {
            "buffer" : 0,
            "byteLength" : 42744,
            "byteOffset" : 128232
        },
        {
            "buffer" : 0,
            "byteLength" : 15072,
            "byteOffset" : 170976
        },
        {
            "buffer" : 0,
            "byteLength" : 367812,
            "byteOffset" : 186048
        },
        {
            "buffer" : 0,
            "byteLength" : 367812,
            "byteOffset" : 553860
        },
        {
            "buffer" : 0,
            "byteLength" : 245208,
            "byteOffset" : 921672
        },
        {
            "buffer" : 0,
            "byteLength" : 72024,
            "byteOffset" : 1166880
        },
        {
            "buffer" : 0,
            "byteLength" : 288,
            "byteOffset" : 1238904
        },
        {
            "buffer" : 0,
            "byteLength" : 288,
            "byteOffset" : 1239192
        },
        {
            "buffer" : 0,
            "byteLength" : 192,
            "byteOffset" : 1239480
        },
        {
            "buffer" : 0,
            "byteLength" : 72,
            "byteOffset" : 1239672
        },
        {
            "buffer" : 0,
            "byteLength" : 23076,
            "byteOffset" : 1239744
        },
        {
            "buffer" : 0,
            "byteLength" : 23076,
            "byteOffset" : 1262820
        },
        {
            "buffer" : 0,
            "byteLength" : 15384,
            "byteOffset" : 1285896
        },
        {
            "buffer" : 0,
            "byteLength" : 8856,
            "byteOffset" : 1301280
        }
    ],
    "buffers" : [
        {
            "byteLength" : 1310136,
            "uri" : "data:application/octet-stream;base64,"
        }
    ]
}
