{
    "asset" : {
        "generator" : "Khronos glTF Blender I/O v1.8.19",
        "version" : "2.0"
    },
    "scene" : 0,
    "scenes" : [
        {
            "name" : "Scene",
            "nodes" : [
                0
            ]
        }
    ],
    "nodes" : [
        {
            "mesh" : 0,
            "name" : "\u673a\u68b0\u81c208"
        }
    ],
    "materials" : [
        {
            "doubleSided" : true,
            "name" : "Mat3d66-4834812-1-16901",
            "pbrMetallicRoughness" : {
                "baseColorTexture" : {
                    "index" : 0
                },
                "metallicFactor" : 0.29133859276771545,
                "roughnessFactor" : 0.6968504190444946
            }
        }
    ],
    "meshes" : [
        {
            "name" : "Obj3d66-4834812-56-432",
            "primitives" : [
                {
                    "attributes" : {
                        "POSITION" : 0,
                        "NORMAL" : 1,
                        "TEXCOORD_0" : 2,
                        "TEXCOORD_1" : 3
                    },
                    "indices" : 4,
                    "material" : 0
                }
            ]
        }
    ],
    "textures" : [
        {
            "sampler" : 0,
            "source" : 0
        }
    ],
    "images" : [
        {
            "bufferView" : 5,
            "mimeType" : "image/jpeg",
            "name" : "3d66Model-4834812-files-1"
        }
    ],
    "accessors" : [
        {
            "bufferView" : 0,
            "componentType" : 5126,
            "count" : 7927,
            "max" : [
                8.02682113647461,
                15.032125473022461,
                8.026823043823242
            ],
            "min" : [
                -8.02682113647461,
                1.4901161193847656e-08,
                -8.02682113647461
            ],
            "type" : "VEC3"
        },
        {
            "bufferView" : 1,
            "componentType" : 5126,
            "count" : 7927,
            "type" : "VEC3"
        },
        {
            "bufferView" : 2,
            "componentType" : 5126,
            "count" : 7927,
            "type" : "VEC2"
        },
        {
            "bufferView" : 3,
            "componentType" : 5126,
            "count" : 7927,
            "type" : "VEC2"
        },
        {
            "bufferView" : 4,
            "componentType" : 5123,
            "count" : 18282,
            "type" : "SCALAR"
        }
    ],
    "bufferViews" : [
        {
            "buffer" : 0,
            "byteLength" : 95124,
            "byteOffset" : 0
        },
        {
            "buffer" : 0,
            "byteLength" : 95124,
            "byteOffset" : 95124
        },
        {
            "buffer" : 0,
            "byteLength" : 63416,
            "byteOffset" : 190248
        },
        {
            "buffer" : 0,
            "byteLength" : 63416,
            "byteOffset" : 253664
        },
        {
            "buffer" : 0,
            "byteLength" : 36564,
            "byteOffset" : 317080
        },
        {
            "buffer" : 0,
            "byteLength" : 817011,
            "byteOffset" : 353644
        }
    ],
    "samplers" : [
        {
            "magFilter" : 9729,
            "minFilter" : 9987
        }
    ],
    "buffers" : [
        {
            "byteLength" : 1170656,
            "uri" : "data:application/octet-stream;base64,"
        }
    ]
}
