<svg xmlns="http://www.w3.org/2000/svg" xmlns:xlink="http://www.w3.org/1999/xlink" viewBox="0 0 512 512">
  <path fill="currentColor" d="M52.835,1.409h310.3c41.309,0,101.618-7.112,126.306,10.958,26.161,19.147,21.88,62.032,21.88,107.585V383.932c0,41.9,5.887,93.163-16.907,112.565C470.99,516.432,421.46,511.44,378.048,511.44H117.48c-53.086,0-96.012,3.661-111.388-33.87C-4.671,451.3,2.113,386.9,2.113,352.055V125.928c0-31.131-5.258-76.22,6.962-96.627C19.618,11.694,32.562,9.981,52.835,1.409ZM237.819,90.066l-17.9,2.989L206.988,79.109c-7.016,3.2-21.584,9.051-23.869,16.935l3.978,13.946,119.345,1,20.885,34.865-5.967,14.942,6.961,31.877c1.109,12.69-7.617,24.012-8.95,32.873q3.976,8.467,7.956,16.935Q320.863,263.4,314.4,284.316l-129.29,1-1.989,7.969,24.864,12.95,13.923-13.946,15.913,4.98,3.978,18.927,29.836-1c0.88-15.183,5.21-21.246,19.891-22.911l13.923,13.946,24.864-12.95q-2.487-10.958-4.973-21.916l10.94-9.961,19.891,5.977q6.96-12.451,13.923-24.9l-14.918-14.942,3.978-14.943,20.885-5.977V178.724h-1.989l-18.9-4.981L355.174,158.8l14.918-13.946-14.918-25.9-19.891,4.981-9.945-10.958q2.485-9.462,4.973-18.927c-18.773-19.9-24.01-12.462-39.782,0l-14.918-3.985q-2.486-9.961-4.973-19.923H241.8Zm-78.569,26.9-17.9,33.87h138.24q-9.944,25.4-19.891,50.8,10.94,21.414,21.88,42.834l-0.994,1.993-81.552-1v-1q18.4-36.853,36.8-73.715h-36.8L146.321,277.343l163.1-1,9.946-33.869L296.5,199.643l22.875-52.8q-8.95-14.94-17.9-29.885H159.25Zm-1.989,40.843q-2.485,8.466-4.973,16.934l-18.9,3.985v28.889l20.886,5.976q1.491,7.471,2.983,14.943l-13.923,13.946a20.875,20.875,0,0,0,6.961,10.958l28.842-57.777L194.059,158.8v-1h-36.8ZM23,338.109v104.6c36.845,0.977,108.569,9.456,91.5-38.85-2.306-6.526-10.839-10.421-11.934-14.942,15.472-6.979,16.672-35.945,2.983-45.823C90.917,332.532,46.426,337.41,23,338.109Zm98.459,0v18.927h32.82v85.669l22.874-1V357.036h33.814V338.109H121.458Zm100.448,0q0.5,52.293,1,104.6c34.65,0.757,108.8,9.491,90.5-38.85-2.438-6.443-10.391-10.632-11.934-14.942,15.635-7,16.739-35.915,2.984-45.823C289.793,332.53,245.359,337.428,221.906,338.109Zm108.4,0v104.6l22.874-1q-0.5-51.8-1-103.6H330.311Zm42.765,0v104.6h20.885q0.5-37.849.994-75.708,12.431,37.851,24.864,75.708c7.7,0.378,19.716,1.627,22.874-2.988L469.546,367v75.708h20.885v-104.6h-32.82q-13.425,39.344-26.852,78.7h-1q-11.933-39.344-23.869-78.7H373.076Zm-327.2,18.927c13.674-.208,30.117-0.687,40.776,1.992l3.978,4.981-0.995,8.965c-5.286,11.184-27.374,8.561-43.76,7.969V357.036Zm198.907,0c13.674-.208,30.118-0.687,40.776,1.992l3.979,4.981q-0.5,4.98-1,9.961c-7.211,9.435-26.991,7.46-43.76,6.973V357.036ZM45.873,399.87c13.962-.207,30.841-0.751,41.771,1.993a20.526,20.526,0,0,1,1.989,14.942c-7.163,9.254-27.221,7.44-43.76,6.973V399.87Zm198.907,0c12.948-.514,37.775-3.167,42.765,4.981q0.995,4.482,1.99,8.966c-1.946,4.05-2.836,5.973-6.962,7.969-8.627,3.93-25.935,2.186-37.793,1.992V399.87Z"/>
</svg>
